<svg xmlns="http://www.w3.org/2000/svg" xmlns:xlink="http://www.w3.org/1999/xlink" aria-hidden="true" role="img" class="iconify iconify--logos" width="35.93" height="32" preserveAspectRatio="xMidYMid meet" viewBox="0 0 256 228"><path fill="#00D8FF" d="M210.483 73.824a171.49 171.49 0 0 0-8.24-2.597c.465-1.9.893-3.777 1.273-5.621c6.238-30.281 2.16-54.676-11.769-62.708c-13.355-7.7-35.196.329-57.254 19.526a171.23 171.23 0 0 0-6.375 5.848a155.866 155.866 0 0 0-4.241-3.917C100.759 3.829 77.587-0.822 63.673 7.508C50.33 15.49 46.379 33.402 51.995 61.567c.71 3.584 1.528 7.25 2.453 10.973a157.327 157.327 0 0 0-9.426 2.88c-29.717 9.752-48.542 23.915-48.542 40.827c0 17.379 19.666 32.194 50.486 42.264c2.475.81 5.02 1.563 7.627 2.265c-.978 4.007-1.833 8.092-2.544 12.235c-5.383 31.369-1.183 53.687 12.012 61.578c13.557 8.106 36.154-.256 58.534-19.891c1.773-1.556 3.568-3.184 5.384-4.878a172.748 172.748 0 0 0 6.945 6.542c22.11 19.322 44.424 27.436 57.664 19.424c13.607-8.234 17.743-30.64 12.187-62.026c-.595-3.361-1.282-6.8-2.051-10.306a160.716 160.716 0 0 0 8.748-2.745c30.174-9.934 49.351-24.57 49.351-41.827c0-17.677-19.666-32.73-50.486-42.758ZM147.204 73.824c-2.465-.847-4.986-1.642-7.563-2.392c-.78 2.425-1.634 4.89-2.563 7.395a182.797 182.797 0 0 0-2.564-7.395a116.17 116.17 0 0 0-7.564 2.392c-1.638.564-3.249 1.15-4.84 1.756c-.798-2.488-1.52-4.94-2.164-7.35c-1.967-7.364-3.116-14.08-3.406-19.873c-.289-5.792.289-10.307 1.793-13.39c1.505-3.083 3.986-4.885 7.273-4.885c3.287 0 5.768 1.802 7.273 4.885c1.504 3.083 2.082 7.598 1.793 13.39c-.29 5.793-1.439 12.509-3.406 19.873c-.644 2.41-1.366 4.862-2.164 7.35c-1.591-.606-3.202-1.192-4.84-1.756Zm-36.49 36.49c2.465.847 4.986 1.642 7.563 2.392c.78-2.425 1.634-4.89 2.563-7.395c.929 2.505 1.784 4.97 2.564 7.395a116.17 116.17 0 0 0 7.564-2.392c1.638-.564 3.249-1.15 4.84-1.756c.798 2.488 1.52 4.94 2.164 7.35c1.967 7.364 3.116 14.08 3.406 19.873c.289 5.792-.289 10.307-1.793 13.39c-1.505 3.083-3.986 4.885-7.273 4.885c-3.287 0-5.768-1.802-7.273-4.885c-1.504-3.083-2.082-7.598-1.793-13.39c.29-5.793 1.439-12.509 3.406-19.873c.644-2.41 1.366-4.862 2.164-7.35c1.591.606 3.202 1.192 4.84 1.756Zm36.49-36.49c-2.465-.847-4.986-1.642-7.563-2.392c-.78 2.425-1.634 4.89-2.563 7.395a182.797 182.797 0 0 0-2.564-7.395a116.17 116.17 0 0 0-7.564 2.392c-1.638.564-3.249 1.15-4.84 1.756c-.798-2.488-1.52-4.94-2.164-7.35c-1.967-7.364-3.116-14.08-3.406-19.873c-.289-5.792.289-10.307 1.793-13.39c1.505-3.083 3.986-4.885 7.273-4.885c3.287 0 5.768 1.802 7.273 4.885c1.504 3.083 2.082 7.598 1.793 13.39c-.29 5.793-1.439 12.509-3.406 19.873c-.644 2.41-1.366 4.862-2.164 7.35c-1.591-.606-3.202-1.192-4.84-1.756Z"></path></svg>
